<?xml version="1.0" encoding="UTF-8" standalone="no"?>
<!DOCTYPE svg PUBLIC "-//W3C//DTD SVG 1.1//EN"
 "http://www.w3.org/Graphics/SVG/1.1/DTD/svg11.dtd">
<!-- Generated by graphviz version 2.36.0 (20140111.2315)
 -->
<!-- Title: controllers_diagram Pages: 1 -->
<svg width="690pt" height="683pt"
 viewBox="0.00 0.00 690.00 683.00" xmlns="http://www.w3.org/2000/svg" xmlns:xlink="http://www.w3.org/1999/xlink">
<g id="graph0" class="graph" transform="scale(1 1) rotate(0) translate(4 679)">
<title>controllers_diagram</title>
<polygon fill="none" stroke="none" points="-4,4 -4,-679 686,-679 686,4 -4,4"/>
<!-- _diagram_info -->
<g id="node1" class="node"><title>_diagram_info</title>
<text text-anchor="start" x="160" y="-500.6" font-family="Times,serif" font-size="13.00">Controllers diagram</text>
<text text-anchor="start" x="160" y="-486.6" font-family="Times,serif" font-size="13.00">Date: Jun 20 2017 &#45; 15:32</text>
<text text-anchor="start" x="160" y="-472.6" font-family="Times,serif" font-size="13.00">Migration version: 20170616180315</text>
<text text-anchor="start" x="160" y="-458.6" font-family="Times,serif" font-size="13.00">Generated by RailRoady 1.5.2</text>
<text text-anchor="start" x="160" y="-444.6" font-family="Times,serif" font-size="13.00">http://railroady.prestonlee.com</text>
</g>
<!-- RubricsController -->
<g id="node2" class="node"><title>RubricsController</title>
<path fill="none" stroke="black" d="M259,-551.5C259,-551.5 381,-551.5 381,-551.5 387,-551.5 393,-557.5 393,-563.5 393,-563.5 393,-662.5 393,-662.5 393,-668.5 387,-674.5 381,-674.5 381,-674.5 259,-674.5 259,-674.5 253,-674.5 247,-668.5 247,-662.5 247,-662.5 247,-563.5 247,-563.5 247,-557.5 253,-551.5 259,-551.5"/>
<text text-anchor="middle" x="320" y="-659.3" font-family="Times,serif" font-size="14.00">RubricsController</text>
<polyline fill="none" stroke="black" points="247,-651.5 393,-651.5 "/>
<text text-anchor="start" x="255" y="-636.3" font-family="Times,serif" font-size="14.00">create</text>
<text text-anchor="start" x="255" y="-621.3" font-family="Times,serif" font-size="14.00">show</text>
<polyline fill="none" stroke="black" points="247,-613.5 393,-613.5 "/>
<polyline fill="none" stroke="black" points="247,-589.5 393,-589.5 "/>
<text text-anchor="start" x="255" y="-574.3" font-family="Times,serif" font-size="14.00">_layout</text>
<text text-anchor="start" x="255" y="-559.3" font-family="Times,serif" font-size="14.00">rubric_params</text>
</g>
<!-- PublicationsController -->
<g id="node3" class="node"><title>PublicationsController</title>
<path fill="none" stroke="black" d="M373,-171.5C373,-171.5 528,-171.5 528,-171.5 534,-171.5 540,-177.5 540,-183.5 540,-183.5 540,-387.5 540,-387.5 540,-393.5 534,-399.5 528,-399.5 528,-399.5 373,-399.5 373,-399.5 367,-399.5 361,-393.5 361,-387.5 361,-387.5 361,-183.5 361,-183.5 361,-177.5 367,-171.5 373,-171.5"/>
<text text-anchor="middle" x="450.5" y="-384.3" font-family="Times,serif" font-size="14.00">PublicationsController</text>
<polyline fill="none" stroke="black" points="361,-376.5 540,-376.5 "/>
<text text-anchor="start" x="369" y="-361.3" font-family="Times,serif" font-size="14.00">create</text>
<text text-anchor="start" x="369" y="-346.3" font-family="Times,serif" font-size="14.00">delete_by_redactor</text>
<text text-anchor="start" x="369" y="-331.3" font-family="Times,serif" font-size="14.00">download</text>
<text text-anchor="start" x="369" y="-316.3" font-family="Times,serif" font-size="14.00">set_status</text>
<text text-anchor="start" x="369" y="-301.3" font-family="Times,serif" font-size="14.00">show</text>
<text text-anchor="start" x="369" y="-286.3" font-family="Times,serif" font-size="14.00">show_details</text>
<text text-anchor="start" x="369" y="-271.3" font-family="Times,serif" font-size="14.00">show_for_editorial</text>
<text text-anchor="start" x="369" y="-256.3" font-family="Times,serif" font-size="14.00">show_for_redactor</text>
<polyline fill="none" stroke="black" points="361,-248.5 540,-248.5 "/>
<polyline fill="none" stroke="black" points="361,-224.5 540,-224.5 "/>
<text text-anchor="start" x="369" y="-209.3" font-family="Times,serif" font-size="14.00">_layout</text>
<text text-anchor="start" x="369" y="-194.3" font-family="Times,serif" font-size="14.00">find_in_zip</text>
<text text-anchor="start" x="369" y="-179.3" font-family="Times,serif" font-size="14.00">publication_params</text>
</g>
<!-- MainPageController -->
<g id="node4" class="node"><title>MainPageController</title>
<path fill="none" stroke="black" d="M183,-0.5C183,-0.5 320,-0.5 320,-0.5 326,-0.5 332,-6.5 332,-12.5 332,-12.5 332,-81.5 332,-81.5 332,-87.5 326,-93.5 320,-93.5 320,-93.5 183,-93.5 183,-93.5 177,-93.5 171,-87.5 171,-81.5 171,-81.5 171,-12.5 171,-12.5 171,-6.5 177,-0.5 183,-0.5"/>
<text text-anchor="middle" x="251.5" y="-78.3" font-family="Times,serif" font-size="14.00">MainPageController</text>
<polyline fill="none" stroke="black" points="171,-70.5 332,-70.5 "/>
<text text-anchor="start" x="179" y="-55.3" font-family="Times,serif" font-size="14.00">index</text>
<polyline fill="none" stroke="black" points="171,-47.5 332,-47.5 "/>
<polyline fill="none" stroke="black" points="171,-23.5 332,-23.5 "/>
<text text-anchor="start" x="179" y="-8.3" font-family="Times,serif" font-size="14.00">_layout</text>
</g>
<!-- UsersController -->
<g id="node5" class="node"><title>UsersController</title>
<path fill="none" stroke="black" d="M183,-133.5C183,-133.5 321,-133.5 321,-133.5 327,-133.5 333,-139.5 333,-145.5 333,-145.5 333,-379.5 333,-379.5 333,-385.5 327,-391.5 321,-391.5 321,-391.5 183,-391.5 183,-391.5 177,-391.5 171,-385.5 171,-379.5 171,-379.5 171,-145.5 171,-145.5 171,-139.5 177,-133.5 183,-133.5"/>
<text text-anchor="middle" x="252" y="-376.3" font-family="Times,serif" font-size="14.00">UsersController</text>
<polyline fill="none" stroke="black" points="171,-368.5 333,-368.5 "/>
<text text-anchor="start" x="179" y="-353.3" font-family="Times,serif" font-size="14.00">change_email</text>
<text text-anchor="start" x="179" y="-338.3" font-family="Times,serif" font-size="14.00">change_password</text>
<text text-anchor="start" x="179" y="-323.3" font-family="Times,serif" font-size="14.00">check</text>
<text text-anchor="start" x="179" y="-308.3" font-family="Times,serif" font-size="14.00">confirm</text>
<text text-anchor="start" x="179" y="-293.3" font-family="Times,serif" font-size="14.00">create</text>
<text text-anchor="start" x="179" y="-278.3" font-family="Times,serif" font-size="14.00">create_editorial</text>
<text text-anchor="start" x="179" y="-263.3" font-family="Times,serif" font-size="14.00">delete_user</text>
<text text-anchor="start" x="179" y="-248.3" font-family="Times,serif" font-size="14.00">login</text>
<text text-anchor="start" x="179" y="-233.3" font-family="Times,serif" font-size="14.00">user_search</text>
<polyline fill="none" stroke="black" points="171,-225.5 333,-225.5 "/>
<polyline fill="none" stroke="black" points="171,-201.5 333,-201.5 "/>
<text text-anchor="start" x="179" y="-186.3" font-family="Times,serif" font-size="14.00">_layout</text>
<text text-anchor="start" x="179" y="-171.3" font-family="Times,serif" font-size="14.00">create_user_params</text>
<text text-anchor="start" x="179" y="-156.3" font-family="Times,serif" font-size="14.00">user_login_params</text>
<text text-anchor="start" x="179" y="-141.3" font-family="Times,serif" font-size="14.00">user_params</text>
</g>
<!-- PapersController -->
<g id="node6" class="node"><title>PapersController</title>
<path fill="none" stroke="black" d="M12,-285.5C12,-285.5 127,-285.5 127,-285.5 133,-285.5 139,-291.5 139,-297.5 139,-297.5 139,-396.5 139,-396.5 139,-402.5 133,-408.5 127,-408.5 127,-408.5 12,-408.5 12,-408.5 6,-408.5 0,-402.5 0,-396.5 0,-396.5 0,-297.5 0,-297.5 0,-291.5 6,-285.5 12,-285.5"/>
<text text-anchor="middle" x="69.5" y="-393.3" font-family="Times,serif" font-size="14.00">PapersController</text>
<polyline fill="none" stroke="black" points="0,-385.5 139,-385.5 "/>
<text text-anchor="start" x="8" y="-370.3" font-family="Times,serif" font-size="14.00">create</text>
<text text-anchor="start" x="8" y="-355.3" font-family="Times,serif" font-size="14.00">download</text>
<text text-anchor="start" x="8" y="-340.3" font-family="Times,serif" font-size="14.00">show_for_issue</text>
<polyline fill="none" stroke="black" points="0,-332.5 139,-332.5 "/>
<polyline fill="none" stroke="black" points="0,-308.5 139,-308.5 "/>
<text text-anchor="start" x="8" y="-293.3" font-family="Times,serif" font-size="14.00">_layout</text>
</g>
<!-- EditorialBoardController -->
<g id="node7" class="node"><title>EditorialBoardController</title>
<path fill="none" stroke="black" d="M373,-19.5C373,-19.5 544,-19.5 544,-19.5 550,-19.5 556,-25.5 556,-31.5 556,-31.5 556,-130.5 556,-130.5 556,-136.5 550,-142.5 544,-142.5 544,-142.5 373,-142.5 373,-142.5 367,-142.5 361,-136.5 361,-130.5 361,-130.5 361,-31.5 361,-31.5 361,-25.5 367,-19.5 373,-19.5"/>
<text text-anchor="middle" x="458.5" y="-127.3" font-family="Times,serif" font-size="14.00">EditorialBoardController</text>
<polyline fill="none" stroke="black" points="361,-119.5 556,-119.5 "/>
<text text-anchor="start" x="369" y="-104.3" font-family="Times,serif" font-size="14.00">get_editorial_board</text>
<text text-anchor="start" x="369" y="-89.3" font-family="Times,serif" font-size="14.00">select_editorial_board</text>
<text text-anchor="start" x="369" y="-74.3" font-family="Times,serif" font-size="14.00">set_editorial_board</text>
<polyline fill="none" stroke="black" points="361,-66.5 556,-66.5 "/>
<polyline fill="none" stroke="black" points="361,-42.5 556,-42.5 "/>
<text text-anchor="start" x="369" y="-27.3" font-family="Times,serif" font-size="14.00">_layout</text>
</g>
<!-- IssuesController -->
<g id="node8" class="node"><title>IssuesController</title>
<path fill="none" stroke="black" d="M12,-114.5C12,-114.5 124,-114.5 124,-114.5 130,-114.5 136,-120.5 136,-126.5 136,-126.5 136,-240.5 136,-240.5 136,-246.5 130,-252.5 124,-252.5 124,-252.5 12,-252.5 12,-252.5 6,-252.5 0,-246.5 0,-240.5 0,-240.5 0,-126.5 0,-126.5 0,-120.5 6,-114.5 12,-114.5"/>
<text text-anchor="middle" x="68" y="-237.3" font-family="Times,serif" font-size="14.00">IssuesController</text>
<polyline fill="none" stroke="black" points="0,-229.5 136,-229.5 "/>
<text text-anchor="start" x="8" y="-214.3" font-family="Times,serif" font-size="14.00">create</text>
<text text-anchor="start" x="8" y="-199.3" font-family="Times,serif" font-size="14.00">download</text>
<text text-anchor="start" x="8" y="-184.3" font-family="Times,serif" font-size="14.00">get_titles</text>
<text text-anchor="start" x="8" y="-169.3" font-family="Times,serif" font-size="14.00">show</text>
<polyline fill="none" stroke="black" points="0,-161.5 136,-161.5 "/>
<polyline fill="none" stroke="black" points="0,-137.5 136,-137.5 "/>
<text text-anchor="start" x="8" y="-122.3" font-family="Times,serif" font-size="14.00">_layout</text>
</g>
<!-- ApplicationController -->
<g id="node9" class="node"><title>ApplicationController</title>
<path fill="none" stroke="black" d="M449,-437.5C449,-437.5 670,-437.5 670,-437.5 676,-437.5 682,-443.5 682,-449.5 682,-449.5 682,-593.5 682,-593.5 682,-599.5 676,-605.5 670,-605.5 670,-605.5 449,-605.5 449,-605.5 443,-605.5 437,-599.5 437,-593.5 437,-593.5 437,-449.5 437,-449.5 437,-443.5 443,-437.5 449,-437.5"/>
<text text-anchor="middle" x="559.5" y="-590.3" font-family="Times,serif" font-size="14.00">ApplicationController</text>
<polyline fill="none" stroke="black" points="437,-582.5 682,-582.5 "/>
<polyline fill="none" stroke="black" points="437,-558.5 682,-558.5 "/>
<text text-anchor="start" x="445" y="-543.3" font-family="Times,serif" font-size="14.00">authenticate_editorial_request!</text>
<text text-anchor="start" x="445" y="-528.3" font-family="Times,serif" font-size="14.00">authenticate_redactor_request!</text>
<text text-anchor="start" x="445" y="-513.3" font-family="Times,serif" font-size="14.00">authenticate_request!</text>
<text text-anchor="start" x="445" y="-498.3" font-family="Times,serif" font-size="14.00">invalid_authentication</text>
<polyline fill="none" stroke="black" points="437,-490.5 682,-490.5 "/>
<text text-anchor="start" x="445" y="-475.3" font-family="Times,serif" font-size="14.00">_layout</text>
<text text-anchor="start" x="445" y="-460.3" font-family="Times,serif" font-size="14.00">load_current_user!</text>
<text text-anchor="start" x="445" y="-445.3" font-family="Times,serif" font-size="14.00">payload</text>
</g>
</g>
</svg>
