<?xml version="1.0" encoding="UTF-8" standalone="no"?>
<!DOCTYPE svg PUBLIC "-//W3C//DTD SVG 1.1//EN"
 "http://www.w3.org/Graphics/SVG/1.1/DTD/svg11.dtd">
<!-- Generated by graphviz version 2.36.0 (20140111.2315)
 -->
<!-- Title: models_diagram Pages: 1 -->
<svg width="661pt" height="230pt"
 viewBox="0.00 0.00 661.00 230.00" xmlns="http://www.w3.org/2000/svg" xmlns:xlink="http://www.w3.org/1999/xlink">
<g id="graph0" class="graph" transform="scale(1 1) rotate(0) translate(4 226)">
<title>models_diagram</title>
<polygon fill="none" stroke="none" points="-4,4 -4,-226 657,-226 657,4 -4,4"/>
<!-- _diagram_info -->
<g id="node1" class="node"><title>_diagram_info</title>
<text text-anchor="start" x="7.5" y="-207.6" font-family="Times,serif" font-size="13.00">Models diagram</text>
<text text-anchor="start" x="7.5" y="-193.6" font-family="Times,serif" font-size="13.00">Date: Jun 20 2017 &#45; 15:32</text>
<text text-anchor="start" x="7.5" y="-179.6" font-family="Times,serif" font-size="13.00">Migration version: 20170616180315</text>
<text text-anchor="start" x="7.5" y="-165.6" font-family="Times,serif" font-size="13.00">Generated by RailRoady 1.5.2</text>
<text text-anchor="start" x="7.5" y="-151.6" font-family="Times,serif" font-size="13.00">http://railroady.prestonlee.com</text>
</g>
<!-- EditorialBoardActivity -->
<g id="node2" class="node"><title>EditorialBoardActivity</title>
<ellipse fill="none" stroke="black" cx="307" cy="-18" rx="115.534" ry="18"/>
<text text-anchor="middle" x="307" y="-14.3" font-family="Times,serif" font-size="14.00">EditorialBoardActivity</text>
</g>
<!-- ApplicationRecord -->
<g id="node3" class="node"><title>ApplicationRecord</title>
<ellipse fill="none" stroke="black" cx="454" cy="-183" rx="96.2631" ry="18"/>
<text text-anchor="middle" x="454" y="-179.3" font-family="Times,serif" font-size="14.00">ApplicationRecord</text>
</g>
<!-- Publication -->
<g id="node4" class="node"><title>Publication</title>
<ellipse fill="none" stroke="black" cx="353" cy="-90" rx="63.5411" ry="18"/>
<text text-anchor="middle" x="353" y="-86.3" font-family="Times,serif" font-size="14.00">Publication</text>
</g>
<!-- Publication&#45;&gt;EditorialBoardActivity -->
<g id="edge1" class="edge"><title>Publication&#45;&gt;EditorialBoardActivity</title>
<path fill="none" stroke="#dfda46" d="M337.298,-65.1057C332.633,-58.0071 327.522,-50.2286 322.848,-43.116"/>
<ellipse fill="none" stroke="#dfda46" cx="339.668" cy="-68.7121" rx="4.00002" ry="4.00002"/>
<ellipse fill="#dfda46" stroke="#dfda46" cx="320.549" cy="-39.6181" rx="4.00002" ry="4.00002"/>
</g>
<!-- Rubric -->
<g id="node5" class="node"><title>Rubric</title>
<ellipse fill="none" stroke="black" cx="611" cy="-183" rx="42.3701" ry="18"/>
<text text-anchor="middle" x="611" y="-179.3" font-family="Times,serif" font-size="14.00">Rubric</text>
</g>
<!-- Issue -->
<g id="node6" class="node"><title>Issue</title>
<ellipse fill="none" stroke="black" cx="611" cy="-90" rx="35.6194" ry="18"/>
<text text-anchor="middle" x="611" y="-86.3" font-family="Times,serif" font-size="14.00">Issue</text>
</g>
<!-- Rubric&#45;&gt;Issue -->
<g id="edge2" class="edge"><title>Rubric&#45;&gt;Issue</title>
<path fill="none" stroke="#663a60" d="M611,-156.729C611,-144.725 611,-130.362 611,-118.129"/>
<ellipse fill="none" stroke="#663a60" cx="611" cy="-160.884" rx="4" ry="4"/>
<polygon fill="#663a60" stroke="#663a60" points="611,-118.04 615.5,-108.04 611,-113.04 611,-108.04 611,-108.04 611,-108.04 611,-113.04 606.5,-108.04 611,-118.04 611,-118.04"/>
</g>
<!-- Paper -->
<g id="node7" class="node"><title>Paper</title>
<ellipse fill="none" stroke="black" cx="611" cy="-18" rx="37.5442" ry="18"/>
<text text-anchor="middle" x="611" y="-14.3" font-family="Times,serif" font-size="14.00">Paper</text>
</g>
<!-- Issue&#45;&gt;Paper -->
<g id="edge3" class="edge"><title>Issue&#45;&gt;Paper</title>
<path fill="none" stroke="#bff1ae" d="M611,-63.6398C611,-58.0629 611,-52.1319 611,-46.4761"/>
<ellipse fill="none" stroke="#bff1ae" cx="611" cy="-67.6966" rx="4" ry="4"/>
<polygon fill="#bff1ae" stroke="#bff1ae" points="611,-46.1043 615.5,-36.1043 611,-41.1043 611,-36.1043 611,-36.1043 611,-36.1043 611,-41.1043 606.5,-36.1044 611,-46.1043 611,-46.1043"/>
</g>
<!-- User -->
<g id="node8" class="node"><title>User</title>
<ellipse fill="none" stroke="black" cx="307" cy="-183" rx="32.2457" ry="18"/>
<text text-anchor="middle" x="307" y="-179.3" font-family="Times,serif" font-size="14.00">User</text>
</g>
<!-- User&#45;&gt;EditorialBoardActivity -->
<g id="edge5" class="edge"><title>User&#45;&gt;EditorialBoardActivity</title>
<path fill="none" stroke="#e08b30" d="M294.513,-158.263C284.38,-135.996 272.856,-101.761 280,-72 282.207,-62.8075 286.288,-53.4118 290.621,-45.1339"/>
<ellipse fill="none" stroke="#e08b30" cx="296.289" cy="-162" rx="4.00002" ry="4.00002"/>
<polygon fill="#e08b30" stroke="#e08b30" points="290.659,-45.065 299.462,-38.5264 293.096,-40.699 295.533,-36.3331 295.533,-36.3331 295.533,-36.3331 293.096,-40.699 291.604,-34.1398 290.659,-45.065 290.659,-45.065"/>
</g>
<!-- User&#45;&gt;Publication -->
<g id="edge4" class="edge"><title>User&#45;&gt;Publication</title>
<path fill="none" stroke="#9df3fa" d="M319.145,-157.974C325.496,-145.409 333.281,-130.01 339.783,-117.146"/>
<ellipse fill="none" stroke="#9df3fa" cx="317.242" cy="-161.739" rx="4.00002" ry="4.00002"/>
<polygon fill="#9df3fa" stroke="#9df3fa" points="339.949,-116.818 348.477,-109.923 342.205,-112.355 344.461,-107.893 344.461,-107.893 344.461,-107.893 342.205,-112.355 340.445,-105.863 339.949,-116.818 339.949,-116.818"/>
</g>
</g>
</svg>
