<?xml version="1.0" encoding="UTF-8" standalone="no"?>
<!DOCTYPE svg PUBLIC "-//W3C//DTD SVG 1.1//EN"
 "http://www.w3.org/Graphics/SVG/1.1/DTD/svg11.dtd">
<!-- Generated by graphviz version 2.36.0 (20140111.2315)
 -->
<!-- Title: models_diagram Pages: 1 -->
<svg width="966pt" height="702pt"
 viewBox="0.00 0.00 966.00 702.00" xmlns="http://www.w3.org/2000/svg" xmlns:xlink="http://www.w3.org/1999/xlink">
<g id="graph0" class="graph" transform="scale(1 1) rotate(0) translate(4 698)">
<title>models_diagram</title>
<polygon fill="none" stroke="none" points="-4,4 -4,-698 962,-698 962,4 -4,4"/>
<!-- _diagram_info -->
<g id="node1" class="node"><title>_diagram_info</title>
<text text-anchor="start" x="7.5" y="-627.6" font-family="Times,serif" font-size="13.00">Models diagram</text>
<text text-anchor="start" x="7.5" y="-613.6" font-family="Times,serif" font-size="13.00">Date: Jun 20 2017 &#45; 15:32</text>
<text text-anchor="start" x="7.5" y="-599.6" font-family="Times,serif" font-size="13.00">Migration version: 20170616180315</text>
<text text-anchor="start" x="7.5" y="-585.6" font-family="Times,serif" font-size="13.00">Generated by RailRoady 1.5.2</text>
<text text-anchor="start" x="7.5" y="-571.6" font-family="Times,serif" font-size="13.00">http://railroady.prestonlee.com</text>
</g>
<!-- EditorialBoardActivity -->
<g id="node2" class="node"><title>EditorialBoardActivity</title>
<path fill="none" stroke="black" d="M325,-90.5C325,-90.5 479,-90.5 479,-90.5 485,-90.5 491,-96.5 491,-102.5 491,-102.5 491,-169.5 491,-169.5 491,-175.5 485,-181.5 479,-181.5 479,-181.5 325,-181.5 325,-181.5 319,-181.5 313,-175.5 313,-169.5 313,-169.5 313,-102.5 313,-102.5 313,-96.5 319,-90.5 325,-90.5"/>
<text text-anchor="middle" x="402" y="-166.3" font-family="Times,serif" font-size="14.00">EditorialBoardActivity</text>
<polyline fill="none" stroke="black" points="313,-158.5 491,-158.5 "/>
<text text-anchor="start" x="321" y="-143.3" font-family="Times,serif" font-size="14.00">id :int(11)</text>
<text text-anchor="start" x="321" y="-128.3" font-family="Times,serif" font-size="14.00">publication_id :int(11)</text>
<text text-anchor="start" x="321" y="-113.3" font-family="Times,serif" font-size="14.00">user_id :int(11)</text>
<text text-anchor="start" x="321" y="-98.3" font-family="Times,serif" font-size="14.00">comment :text</text>
</g>
<!-- ApplicationRecord -->
<g id="node3" class="node"><title>ApplicationRecord</title>
<ellipse fill="none" stroke="black" cx="646" cy="-603" rx="96.2631" ry="18"/>
<text text-anchor="middle" x="646" y="-599.3" font-family="Times,serif" font-size="14.00">ApplicationRecord</text>
</g>
<!-- Publication -->
<g id="node4" class="node"><title>Publication</title>
<path fill="none" stroke="black" d="M378.5,-309C378.5,-309 555.5,-309 555.5,-309 561.5,-309 567.5,-315 567.5,-321 567.5,-321 567.5,-463 567.5,-463 567.5,-469 561.5,-475 555.5,-475 555.5,-475 378.5,-475 378.5,-475 372.5,-475 366.5,-469 366.5,-463 366.5,-463 366.5,-321 366.5,-321 366.5,-315 372.5,-309 378.5,-309"/>
<text text-anchor="middle" x="467" y="-459.8" font-family="Times,serif" font-size="14.00">Publication</text>
<polyline fill="none" stroke="black" points="366.5,-452 567.5,-452 "/>
<text text-anchor="start" x="374.5" y="-436.8" font-family="Times,serif" font-size="14.00">id :int(11)</text>
<text text-anchor="start" x="374.5" y="-421.8" font-family="Times,serif" font-size="14.00">filename :varchar(255)</text>
<text text-anchor="start" x="374.5" y="-406.8" font-family="Times,serif" font-size="14.00">size :varchar(255)</text>
<text text-anchor="start" x="374.5" y="-391.8" font-family="Times,serif" font-size="14.00">mime_type :varchar(255)</text>
<text text-anchor="start" x="374.5" y="-376.8" font-family="Times,serif" font-size="14.00">status :varchar(255)</text>
<text text-anchor="start" x="374.5" y="-361.8" font-family="Times,serif" font-size="14.00">attachment :varchar(255)</text>
<text text-anchor="start" x="374.5" y="-346.8" font-family="Times,serif" font-size="14.00">user_id :int(11)</text>
<text text-anchor="start" x="374.5" y="-331.8" font-family="Times,serif" font-size="14.00">created_at :datetime</text>
<text text-anchor="start" x="374.5" y="-316.8" font-family="Times,serif" font-size="14.00">updated_at :datetime</text>
</g>
<!-- Publication&#45;&gt;EditorialBoardActivity -->
<g id="edge1" class="edge"><title>Publication&#45;&gt;EditorialBoardActivity</title>
<path fill="none" stroke="#205236" d="M443.941,-300.893C434.422,-263.696 423.72,-221.877 415.51,-189.791"/>
<ellipse fill="none" stroke="#205236" cx="444.994" cy="-305.009" rx="4.00001" ry="4.00001"/>
<ellipse fill="#205236" stroke="#205236" cx="414.47" cy="-185.727" rx="4.00001" ry="4.00001"/>
</g>
<!-- Rubric -->
<g id="node5" class="node"><title>Rubric</title>
<path fill="none" stroke="black" d="M773,-572.5C773,-572.5 897,-572.5 897,-572.5 903,-572.5 909,-578.5 909,-584.5 909,-584.5 909,-621.5 909,-621.5 909,-627.5 903,-633.5 897,-633.5 897,-633.5 773,-633.5 773,-633.5 767,-633.5 761,-627.5 761,-621.5 761,-621.5 761,-584.5 761,-584.5 761,-578.5 767,-572.5 773,-572.5"/>
<text text-anchor="middle" x="835" y="-618.3" font-family="Times,serif" font-size="14.00">Rubric</text>
<polyline fill="none" stroke="black" points="761,-610.5 909,-610.5 "/>
<text text-anchor="start" x="769" y="-595.3" font-family="Times,serif" font-size="14.00">id :int(11)</text>
<text text-anchor="start" x="769" y="-580.3" font-family="Times,serif" font-size="14.00">title :varchar(255)</text>
</g>
<!-- Issue -->
<g id="node6" class="node"><title>Issue</title>
<path fill="none" stroke="black" d="M743.5,-309C743.5,-309 926.5,-309 926.5,-309 932.5,-309 938.5,-315 938.5,-321 938.5,-321 938.5,-463 938.5,-463 938.5,-469 932.5,-475 926.5,-475 926.5,-475 743.5,-475 743.5,-475 737.5,-475 731.5,-469 731.5,-463 731.5,-463 731.5,-321 731.5,-321 731.5,-315 737.5,-309 743.5,-309"/>
<text text-anchor="middle" x="835" y="-459.8" font-family="Times,serif" font-size="14.00">Issue</text>
<polyline fill="none" stroke="black" points="731.5,-452 938.5,-452 "/>
<text text-anchor="start" x="739.5" y="-436.8" font-family="Times,serif" font-size="14.00">id :int(11)</text>
<text text-anchor="start" x="739.5" y="-421.8" font-family="Times,serif" font-size="14.00">title :varchar(255)</text>
<text text-anchor="start" x="739.5" y="-406.8" font-family="Times,serif" font-size="14.00">english_title :varchar(255)</text>
<text text-anchor="start" x="739.5" y="-391.8" font-family="Times,serif" font-size="14.00">filename :varchar(255)</text>
<text text-anchor="start" x="739.5" y="-376.8" font-family="Times,serif" font-size="14.00">mime_type :varchar(255)</text>
<text text-anchor="start" x="739.5" y="-361.8" font-family="Times,serif" font-size="14.00">attachment :varchar(255)</text>
<text text-anchor="start" x="739.5" y="-346.8" font-family="Times,serif" font-size="14.00">rubric_id :int(11)</text>
<text text-anchor="start" x="739.5" y="-331.8" font-family="Times,serif" font-size="14.00">created_at :datetime</text>
<text text-anchor="start" x="739.5" y="-316.8" font-family="Times,serif" font-size="14.00">updated_at :datetime</text>
</g>
<!-- Rubric&#45;&gt;Issue -->
<g id="edge2" class="edge"><title>Rubric&#45;&gt;Issue</title>
<path fill="none" stroke="#6e16de" d="M835,-564.417C835,-542.272 835,-513.206 835,-485.314"/>
<ellipse fill="none" stroke="#6e16de" cx="835" cy="-568.499" rx="4" ry="4"/>
<polygon fill="#6e16de" stroke="#6e16de" points="835,-485.107 839.5,-475.107 835,-480.107 835,-475.107 835,-475.107 835,-475.107 835,-480.107 830.5,-475.107 835,-485.107 835,-485.107"/>
</g>
<!-- Paper -->
<g id="node7" class="node"><title>Paper</title>
<path fill="none" stroke="black" d="M723.5,-0.5C723.5,-0.5 946.5,-0.5 946.5,-0.5 952.5,-0.5 958.5,-6.5 958.5,-12.5 958.5,-12.5 958.5,-259.5 958.5,-259.5 958.5,-265.5 952.5,-271.5 946.5,-271.5 946.5,-271.5 723.5,-271.5 723.5,-271.5 717.5,-271.5 711.5,-265.5 711.5,-259.5 711.5,-259.5 711.5,-12.5 711.5,-12.5 711.5,-6.5 717.5,-0.5 723.5,-0.5"/>
<text text-anchor="middle" x="835" y="-256.3" font-family="Times,serif" font-size="14.00">Paper</text>
<polyline fill="none" stroke="black" points="711.5,-248.5 958.5,-248.5 "/>
<text text-anchor="start" x="719.5" y="-233.3" font-family="Times,serif" font-size="14.00">id :int(11)</text>
<text text-anchor="start" x="719.5" y="-218.3" font-family="Times,serif" font-size="14.00">title :varchar(255)</text>
<text text-anchor="start" x="719.5" y="-203.3" font-family="Times,serif" font-size="14.00">english_title :varchar(255)</text>
<text text-anchor="start" x="719.5" y="-188.3" font-family="Times,serif" font-size="14.00">rubric :varchar(255)</text>
<text text-anchor="start" x="719.5" y="-173.3" font-family="Times,serif" font-size="14.00">english_rubric :varchar(255)</text>
<text text-anchor="start" x="719.5" y="-158.3" font-family="Times,serif" font-size="14.00">autors :varchar(255)</text>
<text text-anchor="start" x="719.5" y="-143.3" font-family="Times,serif" font-size="14.00">english_autors :varchar(255)</text>
<text text-anchor="start" x="719.5" y="-128.3" font-family="Times,serif" font-size="14.00">keywords :varchar(255)</text>
<text text-anchor="start" x="719.5" y="-113.3" font-family="Times,serif" font-size="14.00">english_keywords :varchar(255)</text>
<text text-anchor="start" x="719.5" y="-98.3" font-family="Times,serif" font-size="14.00">description :text</text>
<text text-anchor="start" x="719.5" y="-83.3" font-family="Times,serif" font-size="14.00">english_description :text</text>
<text text-anchor="start" x="719.5" y="-68.3" font-family="Times,serif" font-size="14.00">mime_type :varchar(255)</text>
<text text-anchor="start" x="719.5" y="-53.3" font-family="Times,serif" font-size="14.00">attachment :varchar(255)</text>
<text text-anchor="start" x="719.5" y="-38.3" font-family="Times,serif" font-size="14.00">issue_id :int(11)</text>
<text text-anchor="start" x="719.5" y="-23.3" font-family="Times,serif" font-size="14.00">created_at :datetime</text>
<text text-anchor="start" x="719.5" y="-8.3" font-family="Times,serif" font-size="14.00">updated_at :datetime</text>
</g>
<!-- Issue&#45;&gt;Paper -->
<g id="edge3" class="edge"><title>Issue&#45;&gt;Paper</title>
<path fill="none" stroke="#8b3ee7" d="M835,-300.719C835,-294.561 835,-288.277 835,-281.932"/>
<ellipse fill="none" stroke="#8b3ee7" cx="835" cy="-304.884" rx="4" ry="4"/>
<polygon fill="#8b3ee7" stroke="#8b3ee7" points="835,-281.921 839.5,-271.921 835,-276.921 835,-271.921 835,-271.921 835,-271.921 835,-276.921 830.5,-271.921 835,-281.921 835,-281.921"/>
</g>
<!-- User -->
<g id="node8" class="node"><title>User</title>
<path fill="none" stroke="black" d="M286.5,-512.5C286.5,-512.5 519.5,-512.5 519.5,-512.5 525.5,-512.5 531.5,-518.5 531.5,-524.5 531.5,-524.5 531.5,-681.5 531.5,-681.5 531.5,-687.5 525.5,-693.5 519.5,-693.5 519.5,-693.5 286.5,-693.5 286.5,-693.5 280.5,-693.5 274.5,-687.5 274.5,-681.5 274.5,-681.5 274.5,-524.5 274.5,-524.5 274.5,-518.5 280.5,-512.5 286.5,-512.5"/>
<text text-anchor="middle" x="403" y="-678.3" font-family="Times,serif" font-size="14.00">User</text>
<polyline fill="none" stroke="black" points="274.5,-670.5 531.5,-670.5 "/>
<text text-anchor="start" x="282.5" y="-655.3" font-family="Times,serif" font-size="14.00">id :int(11)</text>
<text text-anchor="start" x="282.5" y="-640.3" font-family="Times,serif" font-size="14.00">full_name :varchar(255)</text>
<text text-anchor="start" x="282.5" y="-625.3" font-family="Times,serif" font-size="14.00">email :varchar(255)</text>
<text text-anchor="start" x="282.5" y="-610.3" font-family="Times,serif" font-size="14.00">password_digest :varchar(255)</text>
<text text-anchor="start" x="282.5" y="-595.3" font-family="Times,serif" font-size="14.00">role :varchar(255)</text>
<text text-anchor="start" x="282.5" y="-580.3" font-family="Times,serif" font-size="14.00">confirmation_token :varchar(255)</text>
<text text-anchor="start" x="282.5" y="-565.3" font-family="Times,serif" font-size="14.00">email_confirmed :tinyint(1)</text>
<text text-anchor="start" x="282.5" y="-550.3" font-family="Times,serif" font-size="14.00">confirmation_sent_at :datetime</text>
<text text-anchor="start" x="282.5" y="-535.3" font-family="Times,serif" font-size="14.00">created_at :datetime</text>
<text text-anchor="start" x="282.5" y="-520.3" font-family="Times,serif" font-size="14.00">updated_at :datetime</text>
</g>
<!-- User&#45;&gt;EditorialBoardActivity -->
<g id="edge5" class="edge"><title>User&#45;&gt;EditorialBoardActivity</title>
<path fill="none" stroke="#d1cb67" d="M363.606,-504.293C360.93,-494.848 358.647,-485.316 357,-476 343.998,-402.474 347.42,-382.05 357,-308 362.122,-268.408 373.653,-224.913 383.759,-191.697"/>
<ellipse fill="none" stroke="#d1cb67" cx="364.807" cy="-508.364" rx="4.00001" ry="4.00001"/>
<polygon fill="#d1cb67" stroke="#d1cb67" points="383.886,-191.288 391.141,-183.065 385.364,-186.511 386.842,-181.735 386.842,-181.735 386.842,-181.735 385.364,-186.511 382.543,-180.405 383.886,-191.288 383.886,-191.288"/>
</g>
<!-- User&#45;&gt;Publication -->
<g id="edge4" class="edge"><title>User&#45;&gt;Publication</title>
<path fill="none" stroke="#8760ec" d="M432.835,-504.572C434.863,-497.946 436.904,-491.282 438.924,-484.687"/>
<ellipse fill="none" stroke="#8760ec" cx="431.592" cy="-508.631" rx="4.00001" ry="4.00001"/>
<polygon fill="#8760ec" stroke="#8760ec" points="438.935,-484.649 446.166,-476.404 440.399,-479.868 441.863,-475.087 441.863,-475.087 441.863,-475.087 440.399,-479.868 437.561,-473.769 438.935,-484.649 438.935,-484.649"/>
</g>
</g>
</svg>
